<svg width="10" height="9" viewBox="0 0 10 9" fill="none" xmlns="http://www.w3.org/2000/svg">
<path d="M5.53836 8.86803C5.49962 8.82624 5.46889 8.77661 5.44792 8.72199C5.42695 8.66736 5.41616 8.60881 5.41616 8.54968C5.41616 8.49054 5.42695 8.43199 5.44792 8.37736C5.46889 8.32274 5.49962 8.27311 5.53836 8.23132L8.57732 4.94992L0.416653 4.94992C0.306149 4.94992 0.200172 4.90251 0.122034 4.81812C0.0438964 4.73374 -5.09096e-07 4.61929 -5.0388e-07 4.49995C-4.98663e-07 4.38061 0.0438964 4.26616 0.122034 4.18177C0.200172 4.09739 0.306149 4.04998 0.416653 4.04998L8.57732 4.04998L5.53836 0.768573C5.46018 0.684141 5.41626 0.569626 5.41626 0.45022C5.41626 0.330814 5.46018 0.216299 5.53836 0.131866C5.61654 0.0474335 5.72258 -1.86082e-07 5.83314 -1.82139e-07C5.94371 -1.78196e-07 6.04974 0.0474335 6.12792 0.131866L9.8778 4.18159C9.91654 4.22338 9.94727 4.27301 9.96824 4.32764C9.98921 4.38226 10 4.44082 10 4.49995C10 4.55908 9.98921 4.61763 9.96824 4.67226C9.94727 4.72689 9.91654 4.77651 9.8778 4.8183L6.12792 8.86803C6.08923 8.90987 6.04328 8.94306 5.99269 8.9657C5.94211 8.98835 5.8879 9 5.83314 9C5.77839 9 5.72417 8.98835 5.67359 8.9657C5.62301 8.94306 5.57706 8.90987 5.53836 8.86803Z" fill="black"/>
</svg>
