<svg width="35" height="25" viewBox="0 0 35 25" fill="none" xmlns="http://www.w3.org/2000/svg">
<g id="Group 44">
<path id="Vector" d="M17.1929 10.8193L32.8877 0.736842C32.2567 0.263561 31.4904 0.005282 30.7017 0H3.68413C2.89539 0.005282 2.12916 0.263561 1.49817 0.736842L17.1929 10.8193Z" fill="white"/>
<path id="Vector_2" d="M17.8561 13.3124L17.6474 13.4106H17.5491C17.436 13.4611 17.316 13.4942 17.193 13.5088C17.0911 13.5217 16.9879 13.5217 16.886 13.5088H16.7877L16.579 13.4106L0.122807 2.77551C0.0441837 3.07214 0.00292859 3.37743 0 3.68428V20.8773C0 21.8544 0.388157 22.7915 1.07908 23.4824C1.77 24.1733 2.7071 24.5615 3.68421 24.5615H30.7018C31.6789 24.5615 32.616 24.1733 33.3069 23.4824C33.9978 22.7915 34.386 21.8544 34.386 20.8773V3.68428C34.383 3.37743 34.3418 3.07214 34.2632 2.77551L17.8561 13.3124Z" fill="white"/>
</g>
</svg>
