<svg width="39" height="24" viewBox="0 0 39 24" fill="none" xmlns="http://www.w3.org/2000/svg">
<path id="Vector" fill-rule="evenodd" clip-rule="evenodd" d="M0 1.8C0 1.32261 0.189642 0.864773 0.527208 0.527208C0.864773 0.189642 1.32261 0 1.8 0H36.6C37.0774 0 37.5352 0.189642 37.8728 0.527208C38.2104 0.864773 38.4 1.32261 38.4 1.8C38.4 2.27739 38.2104 2.73523 37.8728 3.07279C37.5352 3.41036 37.0774 3.6 36.6 3.6H1.8C1.32261 3.6 0.864773 3.41036 0.527208 3.07279C0.189642 2.73523 0 2.27739 0 1.8ZM0 12C0 11.5226 0.189642 11.0648 0.527208 10.7272C0.864773 10.3896 1.32261 10.2 1.8 10.2H36.6C37.0774 10.2 37.5352 10.3896 37.8728 10.7272C38.2104 11.0648 38.4 11.5226 38.4 12C38.4 12.4774 38.2104 12.9352 37.8728 13.2728C37.5352 13.6104 37.0774 13.8 36.6 13.8H1.8C1.32261 13.8 0.864773 13.6104 0.527208 13.2728C0.189642 12.9352 0 12.4774 0 12ZM1.8 20.4C1.32261 20.4 0.864773 20.5896 0.527208 20.9272C0.189642 21.2648 0 21.7226 0 22.2C0 22.6774 0.189642 23.1352 0.527208 23.4728C0.864773 23.8104 1.32261 24 1.8 24H36.6C37.0774 24 37.5352 23.8104 37.8728 23.4728C38.2104 23.1352 38.4 22.6774 38.4 22.2C38.4 21.7226 38.2104 21.2648 37.8728 20.9272C37.5352 20.5896 37.0774 20.4 36.6 20.4H1.8Z" fill="white"/>
</svg>
