<svg width="72" height="72" viewBox="0 0 72 72" fill="none" xmlns="http://www.w3.org/2000/svg">
<g id="Group 2394">
<path id="Ellipse 22" d="M71.7931 36.0001C71.7931 55.8252 55.7217 71.8966 35.8966 71.8966C16.0714 71.8966 0 55.8252 0 36.0001C0 16.1749 16.0714 0.103516 35.8966 0.103516C55.7217 0.103516 71.7931 16.1749 71.7931 36.0001ZM3.58966 36.0001C3.58966 53.8427 18.0539 68.307 35.8966 68.307C53.7392 68.307 68.2034 53.8427 68.2034 36.0001C68.2034 18.1575 53.7392 3.69317 35.8966 3.69317C18.0539 3.69317 3.58966 18.1575 3.58966 36.0001Z" fill="#D9D9D9"/>
<path id="Vector" d="M44.7211 24.3993C44.3131 24.3993 43.9142 24.5203 43.5749 24.747C43.2356 24.9737 42.9712 25.296 42.815 25.673C42.6589 26.05 42.618 26.4648 42.6976 26.865C42.7772 27.2652 42.9737 27.6328 43.2623 27.9214C43.5508 28.2099 43.9184 28.4064 44.3186 28.486C44.7189 28.5656 45.1337 28.5248 45.5107 28.3686C45.8877 28.2124 46.2099 27.948 46.4366 27.6087C46.6633 27.2694 46.7843 26.8705 46.7843 26.4625C46.7843 25.9153 46.5669 25.3905 46.18 25.0036C45.7931 24.6167 45.2683 24.3993 44.7211 24.3993ZM52.6299 28.56C52.5965 27.1335 52.3293 25.7222 51.839 24.3821C51.4019 23.2356 50.7215 22.1974 49.8447 21.339C48.9933 20.4577 47.9527 19.7816 46.8015 19.3618C45.465 18.8566 44.0521 18.5833 42.6236 18.5537C40.8011 18.4506 40.2166 18.4506 35.5401 18.4506C30.8636 18.4506 30.279 18.4506 28.4566 18.5537C27.0281 18.5833 25.6152 18.8566 24.2787 19.3618C23.1296 19.7859 22.0899 20.4614 21.2355 21.339C20.3543 22.1903 19.6781 23.231 19.2583 24.3821C18.7531 25.7186 18.4799 27.1316 18.4503 28.56C18.3471 30.3825 18.3471 30.9671 18.3471 35.6435C18.3471 40.32 18.3471 40.9046 18.4503 42.7271C18.4799 44.1555 18.7531 45.5685 19.2583 46.905C19.6781 48.0561 20.3543 49.0968 21.2355 49.9481C22.0899 50.8257 23.1296 51.5012 24.2787 51.9253C25.6152 52.4305 27.0281 52.7038 28.4566 52.7334C30.279 52.8365 30.8636 52.8365 35.5401 52.8365C40.2166 52.8365 40.8011 52.8365 42.6236 52.7334C44.0521 52.7038 45.465 52.4305 46.8015 51.9253C47.9527 51.5055 48.9933 50.8294 49.8447 49.9481C50.7254 49.0929 51.4064 48.0538 51.839 46.905C52.3293 45.5649 52.5965 44.1536 52.6299 42.7271C52.6299 40.9046 52.7331 40.32 52.7331 35.6435C52.7331 30.9671 52.7331 30.3825 52.6299 28.56ZM49.5352 42.5207C49.5227 43.6121 49.325 44.6934 48.9506 45.7186C48.6761 46.4669 48.2352 47.1429 47.6611 47.6958C47.1035 48.2641 46.4288 48.7041 45.684 48.9853C44.6587 49.3597 43.5774 49.5574 42.4861 49.5699C40.7668 49.6558 40.1306 49.673 35.6089 49.673C31.0871 49.673 30.451 49.673 28.7317 49.5699C27.5985 49.5911 26.4701 49.4166 25.3962 49.0541C24.6841 48.7585 24.0403 48.3196 23.505 47.7646C22.9343 47.2123 22.4989 46.5356 22.2327 45.7874C21.813 44.7475 21.5802 43.6416 21.545 42.5207C21.545 40.8014 21.4418 40.1653 21.4418 35.6435C21.4418 31.1218 21.4418 30.4857 21.545 28.7664C21.5527 27.6506 21.7564 26.5449 22.1468 25.4997C22.4494 24.774 22.914 24.1271 23.505 23.6085C24.0273 23.0173 24.6729 22.5478 25.3962 22.233C26.4442 21.8548 27.5488 21.6572 28.6629 21.6485C30.3822 21.6485 31.0183 21.5453 35.5401 21.5453C40.0618 21.5453 40.698 21.5453 42.4173 21.6485C43.5086 21.661 44.59 21.8586 45.6152 22.233C46.3965 22.523 47.0977 22.9944 47.6611 23.6085C48.2246 24.1366 48.6648 24.7823 48.9506 25.4997C49.3327 26.5466 49.5305 27.6519 49.5352 28.7664C49.6211 30.4857 49.6383 31.1218 49.6383 35.6435C49.6383 40.1653 49.6211 40.8014 49.5352 42.5207ZM35.5401 26.8235C33.7964 26.8269 32.0928 27.3471 30.6447 28.3183C29.1965 29.2896 28.0687 30.6682 27.4037 32.2802C26.7388 33.8921 26.5666 35.665 26.9089 37.3748C27.2511 39.0845 28.0925 40.6545 29.3267 41.8863C30.5609 43.1181 32.1325 43.9564 33.8429 44.2953C35.5533 44.6342 37.3259 44.4586 38.9365 43.7905C40.5472 43.1224 41.9236 41.992 42.892 40.5419C43.8604 39.0918 44.3773 37.3872 44.3773 35.6435C44.3796 34.4832 44.1524 33.3339 43.7089 32.2616C43.2654 31.1894 42.6142 30.2154 41.793 29.3957C40.9717 28.576 39.9964 27.9268 38.9233 27.4854C37.8502 27.0439 36.7004 26.819 35.5401 26.8235ZM35.5401 41.3688C34.4077 41.3688 33.3008 41.033 32.3593 40.4039C31.4178 39.7748 30.684 38.8807 30.2506 37.8345C29.8173 36.7884 29.7039 35.6372 29.9248 34.5266C30.1457 33.416 30.691 32.3959 31.4917 31.5952C32.2924 30.7945 33.3126 30.2492 34.4232 30.0283C35.5337 29.8074 36.6849 29.9208 37.7311 30.3541C38.7772 30.7874 39.6714 31.5212 40.3005 32.4628C40.9296 33.4043 41.2654 34.5112 41.2654 35.6435C41.2654 36.3954 41.1173 37.1399 40.8295 37.8345C40.5418 38.5291 40.1201 39.1603 39.5885 39.6919C39.0568 40.2236 38.4257 40.6453 37.7311 40.933C37.0364 41.2207 36.2919 41.3688 35.5401 41.3688Z" fill="white"/>
</g>
</svg>
