<svg width="73" height="72" viewBox="0 0 73 72" fill="none" xmlns="http://www.w3.org/2000/svg">
<g id="Group 2397">
<g id="Group">
<path id="Vector" d="M18.9333 29.197H26.6236V52.8394H18.9333V29.197ZM47.5707 29.4743C47.489 29.4485 47.4117 29.4205 47.3257 29.3969C47.2225 29.3735 47.1185 29.3535 47.014 29.3367C46.5599 29.2439 46.0977 29.1971 45.6342 29.197C41.1507 29.197 38.3072 32.4575 37.3701 33.717V29.197H29.6799V52.8394H37.3701V39.9436C37.3701 39.9436 43.1818 31.8493 45.6342 37.7942V52.8394H53.3222V36.8851C53.3191 35.1874 52.7526 33.5388 51.7118 32.1977C50.6709 30.8565 49.2145 29.8987 47.5707 29.4743Z" fill="white"/>
<path id="Vector_2" d="M22.6946 25.9731C24.7719 25.9731 26.4559 24.2891 26.4559 22.2118C26.4559 20.1345 24.7719 18.4506 22.6946 18.4506C20.6173 18.4506 18.9333 20.1345 18.9333 22.2118C18.9333 24.2891 20.6173 25.9731 22.6946 25.9731Z" fill="white"/>
</g>
<path id="Ellipse 24" d="M72.3793 36.0001C72.3793 55.8252 56.3079 71.8966 36.4827 71.8966C16.6576 71.8966 0.586182 55.8252 0.586182 36.0001C0.586182 16.1749 16.6576 0.103516 36.4827 0.103516C56.3079 0.103516 72.3793 16.1749 72.3793 36.0001ZM4.17584 36.0001C4.17584 53.8427 18.6401 68.307 36.4827 68.307C54.3253 68.307 68.7896 53.8427 68.7896 36.0001C68.7896 18.1575 54.3253 3.69317 36.4827 3.69317C18.6401 3.69317 4.17584 18.1575 4.17584 36.0001Z" fill="#D9D9D9"/>
</g>
</svg>
