<svg width="73" height="72" viewBox="0 0 73 72" fill="none" xmlns="http://www.w3.org/2000/svg">
<g id="Group 2396">
<g id="Group 43">
<path id="Vector" d="M35.9193 34.8537L51.6141 24.7713C50.9831 24.298 50.2169 24.0397 49.4281 24.0344H22.4106C21.6218 24.0397 20.8556 24.298 20.2246 24.7713L35.9193 34.8537Z" fill="white"/>
<path id="Vector_2" d="M36.5826 37.3468L36.3738 37.445H36.2756C36.1625 37.4955 36.0424 37.5287 35.9194 37.5433C35.8175 37.5561 35.7143 37.5561 35.6124 37.5433H35.5142L35.3054 37.445L18.8492 26.8099C18.7706 27.1066 18.7294 27.4119 18.7264 27.7187V44.9117C18.7264 45.8888 19.1146 46.8259 19.8055 47.5168C20.4964 48.2078 21.4335 48.5959 22.4107 48.5959H49.4282C50.4053 48.5959 51.3424 48.2078 52.0333 47.5168C52.7243 46.8259 53.1124 45.8888 53.1124 44.9117V27.7187C53.1095 27.4119 53.0682 27.1066 52.9896 26.8099L36.5826 37.3468Z" fill="white"/>
</g>
<path id="Ellipse 25" d="M72.1724 36.0001C72.1724 55.8252 56.1009 71.8966 36.2758 71.8966C16.4507 71.8966 0.379272 55.8252 0.379272 36.0001C0.379272 16.1749 16.4507 0.103516 36.2758 0.103516C56.1009 0.103516 72.1724 16.1749 72.1724 36.0001ZM3.96893 36.0001C3.96893 53.8427 18.4332 68.307 36.2758 68.307C54.1184 68.307 68.5827 53.8427 68.5827 36.0001C68.5827 18.1575 54.1184 3.69317 36.2758 3.69317C18.4332 3.69317 3.96893 18.1575 3.96893 36.0001Z" fill="#D9D9D9"/>
</g>
</svg>
