<svg width="73" height="72" viewBox="0 0 73 72" fill="none" xmlns="http://www.w3.org/2000/svg">
<g id="Group 2395">
<path id="Vector" d="M53.5262 24.995C52.2338 25.5557 50.8672 25.9263 49.4686 26.0954C50.9441 25.2139 52.0498 23.8272 52.5806 22.1926C51.194 23.0179 49.6763 23.5995 48.0932 23.9119C47.035 22.7644 45.6259 22.0005 44.0869 21.7401C42.5478 21.4798 40.9659 21.7376 39.5892 22.4731C38.2124 23.2087 37.1188 24.3804 36.4797 25.8045C35.8407 27.2286 35.6924 28.8246 36.0581 30.342C33.2547 30.2002 30.5124 29.4703 28.0095 28.1996C25.5065 26.9288 23.2989 25.1458 21.53 22.9662C20.9096 24.0497 20.5836 25.2767 20.5844 26.5252C20.5822 27.6847 20.8667 28.8267 21.4127 29.8496C21.9586 30.8725 22.749 31.7445 23.7135 32.388C22.5925 32.3575 21.4954 32.0567 20.5156 31.5112V31.5971C20.524 33.2217 21.0933 34.7935 22.1272 36.0466C23.161 37.2998 24.596 38.1574 26.1893 38.4743C25.576 38.661 24.9392 38.7594 24.2981 38.7666C23.8543 38.7614 23.4117 38.7212 22.9742 38.6463C23.428 40.0437 24.306 41.265 25.4863 42.1401C26.6665 43.0153 28.0901 43.5008 29.5591 43.5291C27.0785 45.4809 24.0159 46.5462 20.8595 46.555C20.2848 46.5569 19.7106 46.5225 19.1402 46.4519C22.3629 48.5327 26.1185 49.6373 29.9546 49.6326C32.6018 49.6601 35.2279 49.1598 37.6796 48.161C40.1313 47.1622 42.3594 45.6849 44.2337 43.8153C46.1081 41.9458 47.5911 39.7215 48.5962 37.2724C49.6013 34.8233 50.1083 32.1984 50.0876 29.5512C50.0876 29.2589 50.0876 28.9494 50.0876 28.6399C51.4367 27.6338 52.6003 26.4004 53.5262 24.995Z" fill="white"/>
<path id="Ellipse 23" d="M72.5862 36.0001C72.5862 55.8252 56.5148 71.8966 36.6896 71.8966C16.8645 71.8966 0.793091 55.8252 0.793091 36.0001C0.793091 16.1749 16.8645 0.103516 36.6896 0.103516C56.5148 0.103516 72.5862 16.1749 72.5862 36.0001ZM4.38275 36.0001C4.38275 53.8427 18.847 68.307 36.6896 68.307C54.5322 68.307 68.9965 53.8427 68.9965 36.0001C68.9965 18.1575 54.5322 3.69317 36.6896 3.69317C18.847 3.69317 4.38275 18.1575 4.38275 36.0001Z" fill="#D9D9D9"/>
</g>
</svg>
